# xmcd
#
# Track frame offsets:
#        150
#        18205
#        37807
#
# Disc length: 779 seconds
#
# Revision: 1
# Processed by: cddbd v1.5.1PL0 Copyright (c) Steve Scherf et al.
# Submitted via: ExactAudioCopy v0.95a5
#
DISCID=13030903
DTITLE=Lloyd Cole - Like Lovers Do
DYEAR=1995
DGENRE=
TTITLE0=Like Lovers Do
TTITLE1=Traffic Album Outtake - Long Version)
TTITLE2=Forest Fire
EXTD=
EXTT0=
EXTT1=
EXTT2=
PLAYORDER=
